<svg width="64" height="64" viewBox="0 0 64 64" fill="none" xmlns="http://www.w3.org/2000/svg">
<g clip-path="url(#clip0_3898_27795)">
<path d="M39 30C45.0751 30 50 34.9249 50 41C50 44.4158 48.4429 47.4678 46 49.4854V62C46 62.8088 45.5128 63.538 44.7656 63.8477C44.0183 64.1572 43.1579 63.9861 42.5859 63.4141L39 59.8281L35.4141 63.4141C34.8421 63.9861 33.9817 64.1572 33.2344 63.8477C32.4872 63.538 32 62.8088 32 62V49.4854C29.5571 47.4678 28 44.4158 28 41C28 34.9249 32.9249 30 39 30ZM42 51.582C41.046 51.8519 40.0404 52 39 52C37.9596 52 36.954 51.8519 36 51.582V57.1719L37.5859 55.5859L37.7373 55.4482C38.5229 54.8074 39.6818 54.8537 40.4141 55.5859L42 57.1719V51.582ZM56.0361 0C60.4344 7.00954e-05 63.9999 3.56558 64 7.96387V44.0361C63.9999 48.4344 60.4344 51.9999 56.0361 52H54V48H56.0361C58.2253 47.9999 59.9999 46.2253 60 44.0361V7.96387C59.9999 5.77472 58.2253 4.00007 56.0361 4H7.96387C5.77472 4.00007 4.00007 5.77471 4 7.96387V44.0361C4.00007 46.2253 5.77471 47.9999 7.96387 48H24V52H7.96387C3.56558 51.9999 6.80319e-05 48.4344 0 44.0361V7.96387C7.00955e-05 3.56558 3.56558 6.95781e-05 7.96387 0H56.0361ZM39 34C35.134 34 32 37.134 32 41C32 44.866 35.134 48 39 48C42.866 48 46 44.866 46 41C46 37.134 42.866 34 39 34ZM26 28H10V24H26V28ZM54 16H10V12H54V16Z" fill="url(#paint0_linear_3898_27795)"/>
</g>
<defs>
<linearGradient id="paint0_linear_3898_27795" x1="32" y1="-0.68085" x2="32" y2="64.6808" gradientUnits="userSpaceOnUse">
<stop stop-color="#4E6DB2"/>
<stop offset="0.333" stop-color="#3F67C5"/>
<stop offset="0.6666" stop-color="#5C9CE6"/>
<stop offset="1" stop-color="#86CEEF"/>
</linearGradient>
<clipPath id="clip0_3898_27795">
<rect width="64" height="64" fill="white"/>
</clipPath>
</defs>
</svg>
