<svg width="64" height="64" viewBox="0 0 64 64" fill="none" xmlns="http://www.w3.org/2000/svg">
<g clip-path="url(#clip0_3898_27797)">
<path d="M31.3985 4.09277C31.8553 3.94867 32.3513 3.97281 32.795 4.16504L62.795 17.165C63.5263 17.482 64.0001 18.2029 64.0001 19V36H60.0001V22.4316L49.0001 28.665V42H45.0001V30.9316L32.9864 37.7402C32.3748 38.0868 31.6254 38.0868 31.0137 37.7402L19.0001 30.9316V44C19.0002 46.2091 20.791 48 23.0001 48H42.172L37.586 43.4141L40.4141 40.5859L48.4141 48.5859C49.1951 49.367 49.1951 50.6331 48.4141 51.4141L40.4141 59.4141L37.586 56.5859L42.172 52H23.0001C18.5819 52 15.0002 48.4182 15.0001 44V28.665L1.01375 20.7402C0.353961 20.3663 -0.037292 19.6509 0.00300598 18.8936C0.043434 18.1361 0.509127 17.4667 1.20515 17.165L31.2052 4.16504L31.3985 4.09277ZM6.47859 19.2383L17.9864 25.7598L32.0001 33.7002L46.0137 25.7598L57.5206 19.2383L32.0001 8.17871L6.47859 19.2383Z" fill="url(#paint0_linear_3898_27797)"/>
</g>
<defs>
<linearGradient id="paint0_linear_3898_27797" x1="32" y1="3.41049" x2="32" y2="60.0034" gradientUnits="userSpaceOnUse">
<stop stop-color="#4E6DB2"/>
<stop offset="0.333" stop-color="#3F67C5"/>
<stop offset="0.6666" stop-color="#5C9CE6"/>
<stop offset="1" stop-color="#86CEEF"/>
</linearGradient>
<clipPath id="clip0_3898_27797">
<rect width="64" height="64" fill="white"/>
</clipPath>
</defs>
</svg>
