<svg width="64" height="64" viewBox="0 0 64 64" fill="none" xmlns="http://www.w3.org/2000/svg">
<g clip-path="url(#clip0_3898_27796)">
<path d="M22 8C26.4183 8 30 11.5817 30 16V34H48C52.4183 34 56 37.5817 56 42V56C56 60.4183 52.4183 64 48 64H8C3.58172 64 0 60.4183 0 56V16C0 11.5817 3.58172 8 8 8H22ZM4 56C4 58.2091 5.79086 60 8 60H26V38H4V56ZM30 60H48C50.2091 60 52 58.2091 52 56V42C52 39.7909 50.2091 38 48 38H30V60ZM8 12C5.79086 12 4 13.7909 4 16V34H26V16C26 13.7909 24.2091 12 22 12H8ZM56 0C60.4183 0 64 3.58172 64 8V22C64 26.4183 60.4183 30 56 30H42C37.5817 30 34 26.4183 34 22V8C34 3.58172 37.5817 0 42 0H56ZM42 4C39.7909 4 38 5.79086 38 8V22C38 24.2091 39.7909 26 42 26H56C58.2091 26 60 24.2091 60 22V8C60 5.79086 58.2091 4 56 4H42Z" fill="url(#paint0_linear_3898_27796)"/>
</g>
<defs>
<linearGradient id="paint0_linear_3898_27796" x1="32" y1="-0.680851" x2="32" y2="64.6808" gradientUnits="userSpaceOnUse">
<stop stop-color="#4E6DB2"/>
<stop offset="0.333" stop-color="#3F67C5"/>
<stop offset="0.6666" stop-color="#5C9CE6"/>
<stop offset="1" stop-color="#86CEEF"/>
</linearGradient>
<clipPath id="clip0_3898_27796">
<rect width="64" height="64" fill="white"/>
</clipPath>
</defs>
</svg>
