<svg width="221" height="32" viewBox="0 0 221 32" fill="none" xmlns="http://www.w3.org/2000/svg">
<path d="M216.646 0.00488281C216.714 0.00834893 216.782 0.0136377 216.85 0.0205078C217.343 0.0706449 217.809 0.211154 218.232 0.423828C218.386 0.501166 218.535 0.587743 218.677 0.683594C218.836 0.791371 218.988 0.910008 219.13 1.03906C219.367 1.25425 219.577 1.49771 219.757 1.76367C220.188 2.40205 220.44 3.17159 220.44 4V28C220.44 30.1398 218.76 31.8877 216.646 31.9951C216.578 31.9986 216.51 32 216.44 32H113.44L113.234 31.9951C112.894 31.9779 112.564 31.9176 112.251 31.8203C111.374 31.5476 110.626 30.9814 110.123 30.2363C110.069 30.1565 110.019 30.074 109.971 29.9902C109.858 29.7948 109.761 29.5894 109.683 29.375C109.66 29.3139 109.64 29.2519 109.62 29.1895C109.503 28.8138 109.44 28.4141 109.44 28V4C109.44 3.58579 109.503 3.18629 109.62 2.81055L109.683 2.625C109.705 2.56378 109.729 2.50314 109.754 2.44336C109.779 2.3834 109.806 2.32405 109.834 2.26562C110.031 1.85771 110.295 1.4885 110.611 1.17188C110.702 1.08127 110.797 0.994702 110.896 0.913086C111.241 0.62788 111.636 0.400172 112.064 0.243164C112.126 0.220631 112.188 0.199242 112.251 0.179688C112.376 0.140794 112.504 0.107664 112.634 0.0810547C112.894 0.0277454 113.164 0 113.44 0H216.44C216.509 6.85188e-06 216.578 0.00144645 216.646 0.00488281ZM113.44 1.59961C112.115 1.59961 111.04 2.67461 111.04 4V28C111.04 29.3254 112.115 30.3994 113.44 30.3994H216.44C217.766 30.3992 218.84 29.3253 218.84 28V4C218.84 3.00588 218.235 2.15245 217.374 1.78809C217.159 1.69706 216.927 1.63689 216.686 1.6123L216.44 1.59961H113.44ZM205.395 18.5674C205.674 19.4048 205.952 20.2427 206.21 21.0801C206.468 20.2427 206.736 19.4048 207.026 18.5674L209.098 12.6621H211.933L206.865 25.8682C206.189 27.6395 205.072 28.4872 203.43 28.4873H201.658V26.2871H203C203.73 26.2871 204.073 25.9213 204.396 25.0303L204.814 23.9355L200.444 12.6621H203.312L205.395 18.5674ZM34.3184 17.4395C34.8488 14.2135 37.8941 12.0275 41.1201 12.5576C44.3461 13.0878 46.5318 16.1334 46.002 19.3594H36.6074C37.1376 21.3214 39.1581 22.4823 41.1201 21.9521C42.0596 21.6982 42.8601 21.0821 43.3467 20.2393L45.2871 21.3594C44.0554 23.4928 41.631 24.6406 39.2002 24.2412C35.974 23.711 33.7882 20.6657 34.3184 17.4395ZM50.3203 13.2725C53.1516 11.6382 56.7725 12.6084 58.4072 15.4395L56.4668 16.5596C55.4505 14.7999 53.2003 14.1971 51.4404 15.2129C49.6804 16.2291 49.0767 18.4801 50.0928 20.2402C51.109 22.0002 53.3601 22.6031 55.1201 21.5869C55.6794 21.264 56.1438 20.7994 56.4668 20.2402L58.4072 21.3594C57.8877 22.2592 57.14 23.0068 56.2402 23.5264C53.4087 25.1611 49.7881 24.1909 48.1533 21.3594C46.5189 18.5279 47.489 14.9071 50.3203 13.2725ZM80.3203 7.67969C84.9151 7.67986 88.6395 11.4052 88.6396 16C88.6395 20.5948 84.9151 24.3192 80.3203 24.3193C75.7254 24.3193 72.0002 20.5949 72 16C72.0002 11.4051 75.7254 7.6797 80.3203 7.67969ZM95.5195 7.67969C98.1755 7.67969 101.28 9.04035 101.28 12.1602H98.8799C98.8797 10.3204 97.0235 9.75977 95.5195 9.75977C94.0797 9.75992 92.3205 10.4645 92.3203 12.1602C92.3207 14.1597 95.2047 14.6247 96.7998 15.04C99.0949 15.603 101.44 16.8639 101.44 19.5195C101.44 22.7835 98.3835 24.3193 95.5195 24.3193C92.5757 24.3192 89.4404 22.7994 89.4404 19.5195H91.8398C91.8398 21.3594 93.8723 22.2391 95.5195 22.2393C97.0875 22.2393 99.04 21.3915 99.04 19.5195C99.0397 17.9199 97.2692 17.4552 96 17.1201C93.4278 16.4175 89.9199 15.3753 89.9199 12.3193C89.9203 9.26395 92.7839 7.67988 95.5195 7.67969ZM138.743 12.4053C141.588 12.4053 143.65 14.1977 143.887 16.7207H141.234C141.03 15.5076 140.182 14.6592 138.775 14.6592C137.004 14.6594 135.941 16.0982 135.941 18.3418C135.941 20.5747 136.993 22.0027 138.775 22.0029C140.193 22.0029 140.955 21.1868 141.213 19.9307H143.887C143.693 22.4107 141.61 24.2578 138.743 24.2578C135.426 24.2576 133.204 21.8416 133.204 18.3418C133.204 14.8421 135.426 12.4055 138.743 12.4053ZM175.559 12.4053C178.822 12.4055 180.99 14.8206 180.99 18.2988V19.04H172.788C172.853 20.8864 173.905 22.1209 175.729 22.1211C177.093 22.1211 178.006 21.4663 178.317 20.5H180.852C180.422 22.7224 178.317 24.2578 175.665 24.2578C172.262 24.2576 170.137 21.7772 170.137 18.3418C170.137 14.8956 172.381 12.4053 175.559 12.4053ZM168.258 24H165.595V22.2715H165.573C164.865 23.5812 163.619 24.2256 162.138 24.2256C159.175 24.2255 157.231 21.8525 157.231 18.3203C157.232 14.8312 159.207 12.4376 162.116 12.4375C163.587 12.4375 164.8 13.028 165.53 14.2734H165.552V8.00293H168.258V24ZM150.661 12.4375C153.613 12.4376 155.363 13.9079 155.363 16.2695V24H152.701V22.4004H152.658C152.121 23.4096 151.165 24.1826 149.318 24.1826C147.064 24.1825 145.4 23.0444 145.4 20.7793C145.4 18.2027 147.515 17.5692 149.855 17.3223C151.96 17.0861 152.68 17.0533 152.68 16.2803V16.1943C152.679 15.2284 151.906 14.5411 150.607 14.541C149.287 14.541 148.406 15.2283 148.331 16.1836H145.723C145.852 13.9292 147.698 12.4375 150.661 12.4375ZM7.67969 9.91992H5.12012C4.7668 9.91992 4.4807 10.2063 4.48047 10.5596V12.7998H11.2002V24H8.95996V14.7197H4.48047V24H2.24023V14.7197H0V12.7998H2.24023V10.2393C2.24064 9.00248 3.2436 8 4.48047 8H7.67969V9.91992ZM20.0801 12.3994C22.2448 12.3995 23.9996 14.1547 24 16.3193V24H21.7598V17.4395C21.7595 15.9375 20.5421 14.7197 19.04 14.7197C17.538 14.7197 16.3206 15.9375 16.3203 17.4395V24H14.0801V12.7998H16.3203V14.7197H16.501C17.132 13.3085 18.5342 12.3994 20.0801 12.3994ZM30.0801 12.7998H33.2803V14.7197H30.0801V21.4395C30.0801 21.7928 30.3664 22.0799 30.7197 22.0801H33.5996V24H30.4004C28.9865 24 27.8398 22.8533 27.8398 21.4395V14.7197H25.5996V12.7998H27.8398V8.95996H30.0801V12.7998ZM62.7197 14.4229C63.4792 13.2168 64.8076 12.4795 66.2402 12.4795C68.5375 12.4796 70.4002 14.3424 70.4004 16.6396V24H68.1602V17.4395C68.1599 15.9376 66.9423 14.72 65.4404 14.7197C63.9384 14.7197 62.72 15.9375 62.7197 17.4395V24H60.4805V8H62.7197V14.4229ZM132.86 24H129.736L128.458 20.1777H122.253L120.943 24H117.894L123.605 8.00293H127.17L132.86 24ZM195.742 12.4375C197.889 12.4375 199.543 13.8542 199.543 16.5166V24H196.826V16.9033C196.826 15.4004 195.882 14.7345 194.723 14.7344C193.348 14.7344 192.5 15.6902 192.5 17.043V24H189.869V16.7744C189.869 15.54 189.011 14.7346 187.809 14.7344C186.585 14.7344 185.543 15.6152 185.543 17.2363V24H182.837V12.6621H185.457V14.627C186.144 13.167 187.443 12.4375 188.871 12.4375C190.406 12.4375 191.662 13.2851 192.135 14.584C192.736 13.2743 194.089 12.4375 195.742 12.4375ZM152.69 18.5781C152.358 18.7928 151.305 18.9649 150.188 19.1367C149.029 19.3085 148.041 19.7271 148.041 20.7578C148.041 21.6488 148.804 22.1748 149.984 22.1748C151.756 22.1748 152.69 21.1223 152.69 19.8018V18.5781ZM80.3203 9.91992C76.9625 9.91993 74.2404 12.6423 74.2402 16C74.2404 19.3577 76.9625 22.0801 80.3203 22.0801C83.678 22.0799 86.4002 19.3576 86.4004 16C86.4002 12.6424 83.678 9.92009 80.3203 9.91992ZM162.771 14.6807C161.097 14.6807 159.969 15.98 159.969 18.3203C159.969 20.6715 161.097 21.96 162.771 21.96C164.543 21.9599 165.702 20.5319 165.702 18.3203C165.702 16.1196 164.543 14.6808 162.771 14.6807ZM125.388 10.5693C124.787 12.5876 124.303 14.123 123.82 15.5938L123.047 17.8486H127.686L126.934 15.5938C126.461 14.123 125.989 12.5876 125.388 10.5693ZM43.7129 17.4395C43.1826 15.4778 41.162 14.3168 39.2002 14.8467C37.9365 15.1882 36.9491 16.1759 36.6074 17.4395H43.7129ZM175.602 14.5518C174.034 14.5518 172.992 15.5507 172.81 17.1719H178.393C178.221 15.5509 177.169 14.552 175.602 14.5518Z" fill="#020B18"/>
</svg>
