<svg width="114" height="46" viewBox="0 0 114 46" fill="none" xmlns="http://www.w3.org/2000/svg">
<line x1="0.123425" y1="38.3043" x2="113.098" y2="38.3043" stroke="white" stroke-width="0.24685" stroke-linecap="round"/>
<path d="M104.663 29.2098C104.663 31.8429 96.7643 29.2098 92.8147 29.2098C88.8651 29.2098 88.8651 33.1594 82.2824 33.1594C75.6998 33.1594 75.0415 27.235 71.7502 27.235C68.4588 27.235 65.1675 30.5263 61.8762 30.5263C58.5849 30.5263 57.9266 25.9185 55.9518 25.9185C53.977 25.9185 49.3691 33.1594 46.7361 33.1594C44.103 33.1594 48.0526 21.3106 46.7361 21.3106C45.4195 21.3106 42.7865 29.8681 40.1534 29.8681C36.8621 29.8681 46.0778 6.82875 44.103 6.82875C42.1282 6.82875 30.2794 35.7925 28.3046 35.7925C26.3298 35.7925 44.7613 0.246094 34.8873 0.246094C21.722 0.246094 8.55664 23.9437 8.55664 35.7925C8.55664 41.7168 10.5314 45.0082 15.7976 45.0082C28.3046 45.0082 30.9377 3.53742 34.229 3.53742C35.5455 3.53742 34.8873 5.51222 34.8873 5.51222" stroke="white" stroke-width="0.493699" stroke-linecap="round" stroke-linejoin="round"/>
</svg>
