<svg width="119" height="18" viewBox="0 0 119 18" fill="none" xmlns="http://www.w3.org/2000/svg">
<path d="M116.596 0C117.411 0.000135435 118.12 0.454476 118.483 1.12402C118.649 1.42826 118.742 1.77698 118.742 2.14746V14.8525C118.742 15.223 118.649 15.5717 118.483 15.876C118.384 16.0587 118.259 16.2253 118.113 16.3711C118.016 16.4681 117.91 16.5557 117.796 16.6328C117.559 16.7932 117.287 16.9059 116.995 16.9609C116.869 16.9847 116.739 16.9983 116.606 16.999C116.603 16.999 116.599 17 116.596 17H60.8896C60.5192 17 60.1704 16.9065 59.8662 16.7412L59.6895 16.6328C59.1182 16.2472 58.7424 15.5945 58.7422 14.8535V2.14746C58.7422 0.961698 59.7039 0 60.8896 0H116.596ZM60.8896 0.859375C60.726 0.859375 60.5698 0.890651 60.4258 0.946289C60.4006 0.956017 60.3759 0.966309 60.3516 0.977539C59.909 1.1814 59.6016 1.62821 59.6016 2.14746V14.8535C59.6017 15.0756 59.6578 15.2844 59.7568 15.4668C59.8362 15.6128 59.943 15.7416 60.0703 15.8467C60.2294 15.978 60.4202 16.0723 60.6299 16.1152C60.7138 16.1324 60.8007 16.1416 60.8896 16.1416H116.595C116.693 16.1416 116.788 16.1292 116.88 16.1084C117.163 16.0445 117.411 15.8885 117.59 15.6719C117.774 15.4491 117.884 15.1636 117.884 14.8525V2.14746C117.884 2.0142 117.864 1.8856 117.826 1.76465C117.776 1.60323 117.695 1.45543 117.59 1.32812C117.537 1.26442 117.479 1.20591 117.415 1.15332C117.192 0.969552 116.907 0.859461 116.596 0.859375H60.8896ZM110.25 10.1719C110.4 10.6214 110.55 11.071 110.688 11.5205C110.827 11.0711 110.97 10.6213 111.126 10.1719L112.238 7.00293H113.76L111.04 14.0908C110.677 15.0417 110.077 15.4971 109.195 15.4971H108.245V14.3154H108.965C109.357 14.3154 109.541 14.1196 109.714 13.6416L109.939 13.0537L107.594 7.00293H109.132L110.25 10.1719ZM10.7783 7.06738C11.9402 7.06755 12.8817 8.01001 12.8818 9.17188V13.2939H11.6797V9.77246C11.6794 8.96636 11.0259 8.3125 10.2197 8.3125C9.41359 8.31254 8.76002 8.96638 8.75977 9.77246V13.2939H7.55762V7.28223H8.75977V8.3125H8.85742C9.19622 7.55522 9.94868 7.06738 10.7783 7.06738ZM74.4756 6.86426C76.0025 6.86434 77.1084 7.82665 77.2354 9.18066H75.8125C75.7029 8.52961 75.247 8.07422 74.4922 8.07422C73.5417 8.07448 72.9718 8.84677 72.9717 10.0508C72.9717 11.2492 73.5359 12.0163 74.4922 12.0166C75.2528 12.0166 75.6624 11.5784 75.8008 10.9043H77.2354C77.1315 12.2353 76.014 13.2265 74.4756 13.2266C72.6949 13.2266 71.502 11.9294 71.502 10.0508C71.5021 8.17232 72.695 6.86426 74.4756 6.86426ZM94.2354 6.86426C95.9872 6.86426 97.1514 8.1612 97.1514 10.0283V10.4258H92.749C92.7836 11.4169 93.3485 12.0801 94.3281 12.0801C95.0599 12.08 95.5497 11.7276 95.7168 11.209H97.0771C96.8466 12.4019 95.7164 13.2266 94.293 13.2266C92.4664 13.2264 91.3252 11.8947 91.3252 10.0508C91.3253 8.20125 92.5299 6.86444 94.2354 6.86426ZM90.3174 13.0879H88.8877V12.1602H88.876C88.4956 12.8631 87.8274 13.209 87.0322 13.209C85.4419 13.2089 84.3986 11.9357 84.3984 10.04C84.3984 8.16727 85.459 6.88199 87.0205 6.88184C87.81 6.88184 88.4617 7.19871 88.8535 7.86719H88.8652V4.50195H90.3174V13.0879ZM80.8721 6.88184C82.4566 6.88186 83.3963 7.67096 83.3965 8.93848V13.0879H81.9668V12.2295H81.9443C81.6562 12.7712 81.1426 13.1855 80.1514 13.1855C78.9414 13.1855 78.0479 12.5751 78.0479 11.3594C78.0479 9.97645 79.1833 9.63647 80.4395 9.50391C81.5689 9.37713 81.9551 9.35925 81.9551 8.94434V8.89844C81.955 8.37987 81.54 8.01074 80.8428 8.01074C80.1343 8.01088 79.6615 8.3799 79.6211 8.89258H78.2207C78.29 7.68253 79.2817 6.88184 80.8721 6.88184ZM71.3174 13.0879H69.6406L68.9551 11.0361H65.624L64.9209 13.0879H63.2842L66.3496 4.50195H68.2627L71.3174 13.0879ZM105.069 6.88184C106.222 6.88184 107.109 7.64225 107.109 9.07129V13.0879H105.651V9.2793C105.651 8.47266 105.145 8.11536 104.522 8.11523C103.785 8.11523 103.329 8.62758 103.329 9.35352V13.0879H101.917V9.20996C101.917 8.54725 101.456 8.11523 100.811 8.11523C100.154 8.11543 99.5947 8.58802 99.5947 9.45801V13.0879H98.1426V7.00293H99.5488V8.05762C99.9176 7.27389 100.615 6.88184 101.382 6.88184C102.206 6.88197 102.88 7.337 103.134 8.03418C103.457 7.33129 104.182 6.88192 105.069 6.88184ZM18.4209 9.36035C18.7058 7.62905 20.3398 6.45575 22.0713 6.74023C23.8029 7.02481 24.9759 8.65996 24.6914 10.3916H19.6494C19.9341 11.4445 21.0183 12.0677 22.0713 11.7832C22.5756 11.6469 23.0054 11.3157 23.2666 10.8633L24.3076 11.4648C23.6465 12.6098 22.3457 13.226 21.041 13.0117C19.3093 12.7271 18.1363 11.092 18.4209 9.36035ZM27.0098 7.12402C28.5295 6.24689 30.4732 6.76752 31.3506 8.28711L30.3086 8.88867C29.7631 7.94405 28.555 7.61968 27.6104 8.16504C26.6658 8.71041 26.3426 9.91861 26.8877 10.8633C27.4331 11.808 28.6412 12.1323 29.5859 11.5869C29.8862 11.4136 30.1352 11.1635 30.3086 10.8633L31.3506 11.4648C31.0718 11.9478 30.6704 12.349 30.1875 12.6279C28.6677 13.5054 26.7242 12.9846 25.8467 11.4648C24.9693 9.94505 25.49 8.00146 27.0098 7.12402ZM43.1123 4.12207C45.5785 4.12219 47.578 6.12167 47.5781 8.58789C47.5781 11.0542 45.5786 13.0536 43.1123 13.0537C40.6459 13.0537 38.6465 11.0543 38.6465 8.58789C38.6466 6.12159 40.646 4.12207 43.1123 4.12207ZM51.2705 4.12207C52.696 4.12207 54.3619 4.85209 54.3623 6.52637H53.0742C53.0738 5.53919 52.0776 5.23828 51.2705 5.23828C50.4978 5.23836 49.5531 5.61653 49.5527 6.52637C49.5527 7.59986 51.1018 7.84931 51.958 8.07227C53.1899 8.37445 54.4481 9.05209 54.4482 10.4775C54.4481 12.2293 52.8077 13.0537 51.2705 13.0537C49.6905 13.0536 48.007 12.2378 48.0068 10.4775H49.2959C49.2961 11.4649 50.3864 11.9374 51.2705 11.9375C52.1121 11.9375 53.16 11.4821 53.1602 10.4775C53.16 9.61889 52.2096 9.36934 51.5283 9.18945C50.1477 8.81233 48.2646 8.25261 48.2646 6.6123C48.265 4.9724 49.8022 4.12216 51.2705 4.12207ZM4.12207 5.32422H2.74805C2.55844 5.32429 2.40439 5.47837 2.4043 5.66797V6.87012H6.01172V12.8818H4.80957V7.90039H2.4043V12.8818H1.20215V7.90039H0V6.87012H1.20215V5.49609C1.20229 4.83231 1.74052 4.29414 2.4043 4.29395H4.12207V5.32422ZM16.1455 6.87012H17.8633V7.90039H16.1455V11.5078C16.1455 11.6975 16.2995 11.8516 16.4893 11.8516H18.0352V12.8818H16.3174C15.5585 12.8818 14.9434 12.2667 14.9434 11.5078V7.90039H13.7412V6.87012H14.9434V4.80957H16.1455V6.87012ZM33.665 7.74121C34.0727 7.09393 34.7857 6.69824 35.5547 6.69824C36.7878 6.6983 37.787 7.69856 37.7871 8.93164V12.8818H36.585V9.36035C36.5846 8.55433 35.9311 7.90039 35.125 7.90039C34.319 7.90049 33.6654 8.55438 33.665 9.36035V12.8818H32.4629V4.29395H33.665V7.74121ZM81.9609 10.1777C81.7822 10.293 81.2174 10.3853 80.6182 10.4775C79.9959 10.5698 79.4659 10.7946 79.4658 11.3477C79.4658 11.8259 79.875 12.1084 80.5088 12.1084C81.4596 12.1084 81.9609 11.5437 81.9609 10.835V10.1777ZM87.3721 8.08594C86.4732 8.08607 85.8682 8.78389 85.8682 10.04C85.8683 11.3017 86.4733 11.993 87.3721 11.9932C88.3228 11.9932 88.9452 11.2269 88.9453 10.04C88.9453 8.85868 88.3229 8.08594 87.3721 8.08594ZM43.1123 5.32422C41.31 5.32422 39.8487 6.78562 39.8486 8.58789C39.8486 10.3902 41.31 11.8516 43.1123 11.8516C44.9146 11.8514 46.376 10.3902 46.376 8.58789C46.3759 6.7857 44.9145 5.32434 43.1123 5.32422ZM67.3066 5.87891C66.9839 6.9623 66.7242 7.78668 66.4648 8.57617L66.0508 9.78613H68.54L68.1367 8.57617C67.8832 7.78668 67.6294 6.96229 67.3066 5.87891ZM94.2588 8.0166C93.4175 8.0166 92.8588 8.55278 92.7607 9.42285H95.7568C95.6646 8.55278 95.1001 8.01662 94.2588 8.0166ZM23.4629 9.36035C23.1781 8.30771 22.0938 7.6845 21.041 7.96875C20.3629 8.152 19.8329 8.6823 19.6494 9.36035H23.4629Z" fill="#FAFAFA"/>
</svg>
