<svg width="80" height="80" viewBox="0 0 80 80" fill="none" xmlns="http://www.w3.org/2000/svg">
<circle cx="52" cy="12" r="10" stroke="#0066FF" stroke-width="4" stroke-linecap="round" stroke-linejoin="round"/>
<circle cx="68" cy="68" r="10" stroke="#0066FF" stroke-width="4" stroke-linecap="round" stroke-linejoin="round"/>
<path d="M36 16H6C3.79086 16 2 14.2091 2 12C2 9.79086 3.79086 8 6 8H36M68 8H74C76.2091 8 78 9.79086 78 12C78 14.2091 76.2091 16 74 16H68" stroke="#101828" stroke-width="4" stroke-linecap="round" stroke-linejoin="round"/>
<path d="M52 72H6C3.79086 72 2 70.2091 2 68C2 65.7909 3.79086 64 6 64H52" stroke="#101828" stroke-width="4" stroke-linecap="round" stroke-linejoin="round"/>
<circle cx="12" cy="40" r="10" stroke="#0066FF" stroke-width="4" stroke-linecap="round" stroke-linejoin="round"/>
<path d="M28 36H74C76.2091 36 78 37.7909 78 40C78 42.2091 76.2091 44 74 44H28" stroke="#101828" stroke-width="4" stroke-linecap="round" stroke-linejoin="round"/>
<rect x="46" y="6" width="12" height="12" rx="6" fill="url(#paint0_linear_3480_30061)"/>
<rect x="6" y="34" width="12" height="12" rx="6" fill="url(#paint1_linear_3480_30061)"/>
<rect x="62" y="62" width="12" height="12" rx="6" fill="url(#paint2_linear_3480_30061)"/>
<defs>
<linearGradient id="paint0_linear_3480_30061" x1="52" y1="6" x2="52" y2="18" gradientUnits="userSpaceOnUse">
<stop stop-color="#D6E3FA" stop-opacity="0.8"/>
<stop offset="1" stop-color="#D6E3FA" stop-opacity="0"/>
</linearGradient>
<linearGradient id="paint1_linear_3480_30061" x1="12" y1="34" x2="12" y2="46" gradientUnits="userSpaceOnUse">
<stop stop-color="#D6E3FA" stop-opacity="0.8"/>
<stop offset="1" stop-color="#D6E3FA" stop-opacity="0"/>
</linearGradient>
<linearGradient id="paint2_linear_3480_30061" x1="68" y1="62" x2="68" y2="74" gradientUnits="userSpaceOnUse">
<stop stop-color="#D6E3FA" stop-opacity="0.8"/>
<stop offset="1" stop-color="#D6E3FA" stop-opacity="0"/>
</linearGradient>
</defs>
</svg>
