<svg width="80" height="80" viewBox="0 0 80 80" fill="none" xmlns="http://www.w3.org/2000/svg">
<rect x="6" y="6" width="68" height="68" rx="2" fill="url(#paint0_linear_3480_29991)"/>
<path d="M20 28V54C22.2091 54 24 52.2091 24 50V28C24 25.7909 25.7909 24 28 24H50C52.2091 24 54 22.2091 54 20H28C23.5817 20 20 23.5817 20 28Z" fill="#0066FF"/>
<path d="M60 52L60 26C57.7909 26 56 27.7909 56 30L56 52C56 54.2091 54.2091 56 52 56L30 56C27.7909 56 26 57.7909 26 60L52 60C56.4183 60 60 56.4183 60 52Z" fill="#0066FF"/>
<path d="M78 66V72C78 75.3137 75.3137 78 72 78H8C4.68629 78 2 75.3137 2 72V8C2 4.68629 4.68629 2 8 2H72C75.3137 2 78 4.68629 78 8V54" stroke="#101828" stroke-width="4" stroke-linecap="round" stroke-linejoin="round"/>
<defs>
<linearGradient id="paint0_linear_3480_29991" x1="40" y1="6" x2="40" y2="74" gradientUnits="userSpaceOnUse">
<stop stop-color="#D6E3FA" stop-opacity="0.8"/>
<stop offset="1" stop-color="#D6E3FA" stop-opacity="0"/>
</linearGradient>
</defs>
</svg>
