<svg width="16" height="16" viewBox="0 0 16 16" fill="none" xmlns="http://www.w3.org/2000/svg">
<path d="M6.25 11.5C6.66421 11.5 7 11.8358 7 12.25C7 12.6642 6.66421 13 6.25 13H1.75C1.33579 13 1 12.6642 1 12.25C1 11.8358 1.33579 11.5 1.75 11.5H6.25ZM14.25 7.25C14.6642 7.25 15 7.58579 15 8C15 8.41421 14.6642 8.75 14.25 8.75H1.75C1.33579 8.75 1 8.41421 1 8C1 7.58579 1.33579 7.25 1.75 7.25H14.25ZM10.25 3C10.6642 3 11 3.33579 11 3.75C11 4.16421 10.6642 4.5 10.25 4.5H1.75C1.33579 4.5 1 4.16421 1 3.75C1 3.33579 1.33579 3 1.75 3H10.25Z" fill="black"/>
</svg>
