<svg width="80" height="80" viewBox="0 0 80 80" fill="none" xmlns="http://www.w3.org/2000/svg">
<path d="M18 10H16C12.6863 10 10 12.6863 10 16V72C10 75.3137 12.6863 78 16 78H64C67.3137 78 70 75.3137 70 72V16C70 12.6863 67.3137 10 64 10H62" stroke="#101828" stroke-width="4" stroke-linecap="round" stroke-linejoin="round"/>
<path d="M18 26V62H20C23.3137 62 26 64.6863 26 68V70H54V68C54 64.6863 56.6863 62 60 62H62V26" stroke="#101828" stroke-width="4" stroke-linecap="round" stroke-linejoin="round"/>
<path d="M30 50L50 50" stroke="#101828" stroke-width="4" stroke-linecap="round" stroke-linejoin="round"/>
<path d="M30 42L50 42" stroke="#101828" stroke-width="4" stroke-linecap="round" stroke-linejoin="round"/>
<path d="M34 58L46 58" stroke="#101828" stroke-width="4" stroke-linecap="round" stroke-linejoin="round"/>
<rect x="30" y="6" width="20" height="20" rx="10" fill="url(#paint0_linear_3480_30228)"/>
<path d="M34 16L38 20L46 12" stroke="#0066FF" stroke-width="4" stroke-linecap="round" stroke-linejoin="round"/>
<circle cx="40" cy="16" r="14" stroke="#0066FF" stroke-width="4" stroke-linecap="round" stroke-linejoin="round"/>
<defs>
<linearGradient id="paint0_linear_3480_30228" x1="40" y1="6" x2="40" y2="26" gradientUnits="userSpaceOnUse">
<stop stop-color="#D6E3FA" stop-opacity="0.8"/>
<stop offset="1" stop-color="#D6E3FA" stop-opacity="0"/>
</linearGradient>
</defs>
</svg>
