<svg width="200" height="200" viewBox="0 0 200 200" fill="none" xmlns="http://www.w3.org/2000/svg">
<mask id="mask0_4092_8373" style="mask-type:alpha" maskUnits="userSpaceOnUse" x="0" y="0" width="200" height="200">
<path d="M8 196H172C185.255 196 196 185.255 196 172V105C196 97.8203 190.18 92 183 92H129C121.82 92 116 97.8203 116 105V128" stroke="url(#paint0_linear_4092_8373)" stroke-width="8"/>
<path d="M32 160H168V168H32V160Z" fill="url(#paint1_linear_4092_8373)"/>
<path d="M32 128H88V136H32V128Z" fill="url(#paint2_linear_4092_8373)"/>
<path d="M32 96H88V104H32V96Z" fill="url(#paint3_linear_4092_8373)"/>
<circle cx="156" cy="36" r="32" stroke="white" stroke-width="8"/>
<path d="M96 36H28C14.7452 36 4 46.7452 4 60V168" stroke="url(#paint4_linear_4092_8373)" stroke-width="8"/>
<path d="M64 4L96 37L64 68" stroke="white" stroke-width="8"/>
</mask>
<g mask="url(#mask0_4092_8373)">
<rect width="200" height="200" fill="white"/>
</g>
<defs>
<linearGradient id="paint0_linear_4092_8373" x1="196" y1="144" x2="8" y2="144" gradientUnits="userSpaceOnUse">
<stop offset="0.5" stop-color="white"/>
<stop offset="1" stop-color="white" stop-opacity="0"/>
</linearGradient>
<linearGradient id="paint1_linear_4092_8373" x1="32" y1="202.219" x2="168" y2="202.219" gradientUnits="userSpaceOnUse">
<stop stop-color="white" stop-opacity="0"/>
<stop offset="0.5" stop-color="white"/>
</linearGradient>
<linearGradient id="paint2_linear_4092_8373" x1="32" y1="170.219" x2="88" y2="170.219" gradientUnits="userSpaceOnUse">
<stop stop-color="white" stop-opacity="0"/>
<stop offset="0.5" stop-color="white"/>
</linearGradient>
<linearGradient id="paint3_linear_4092_8373" x1="32" y1="138.219" x2="88" y2="138.219" gradientUnits="userSpaceOnUse">
<stop stop-color="white" stop-opacity="0"/>
<stop offset="0.5" stop-color="white"/>
</linearGradient>
<linearGradient id="paint4_linear_4092_8373" x1="4" y1="114.702" x2="96" y2="114.702" gradientUnits="userSpaceOnUse">
<stop stop-color="white"/>
<stop offset="1" stop-color="white" stop-opacity="0"/>
</linearGradient>
</defs>
</svg>
