<svg width="64" height="64" viewBox="0 0 64 64" fill="none" xmlns="http://www.w3.org/2000/svg">
<g clip-path="url(#clip0_3955_45162)">
<path d="M31.0582 4.23475C31.6463 3.9211 32.3528 3.92126 32.941 4.23475L62.941 20.2347C63.5925 20.5823 63.9995 21.261 63.9996 21.9994V37.9994H59.9996V25.3324L48.9996 31.1986V42.0004H44.9996V33.3324L32.941 39.764C32.3528 40.0777 31.6463 40.0777 31.0582 39.764L18.9996 33.3324V44.0004C18.9998 46.2092 20.7908 48.0001 22.9996 48.0004H41.1714L36.5855 43.4144L39.4136 40.5863L47.4136 48.5863C48.1947 49.3674 48.1947 50.6334 47.4136 51.4144L39.4136 59.4144L36.5855 56.5863L41.1714 52.0004H22.9996C18.5816 52.0001 14.9998 48.4183 14.9996 44.0004V31.1986L1.05817 23.764C0.406822 23.4164 -0.000427246 22.7378 -0.000427246 21.9994C-0.000321488 21.261 0.406767 20.5824 1.05817 20.2347L31.0582 4.23475ZM6.24957 21.9994L31.9996 35.7318L46.0582 28.2347L57.7486 21.9994L31.9996 8.266L6.24957 21.9994Z" fill="black"/>
</g>
<defs>
<clipPath id="clip0_3955_45162">
<rect width="64" height="64" fill="white"/>
</clipPath>
</defs>
</svg>
