<svg width="80" height="80" viewBox="0 0 80 80" fill="none" xmlns="http://www.w3.org/2000/svg">
<path d="M62.0002 2L46.0001 18L62.0002 34.0001L78.0002 18L62.0002 2Z" stroke="#101828" stroke-width="4" stroke-linecap="round" stroke-linejoin="round"/>
<rect x="2" y="50" width="28.0001" height="28.0001" rx="2" stroke="#101828" stroke-width="4" stroke-linecap="round" stroke-linejoin="round"/>
<rect x="6" y="54" width="20.0001" height="20.0001" fill="url(#paint0_linear_3480_30040)"/>
<path d="M62.0001 34V50" stroke="#101828" stroke-width="4" stroke-linecap="round" stroke-linejoin="round"/>
<path d="M30.0001 18L46.0002 18" stroke="#101828" stroke-width="4" stroke-linecap="round" stroke-linejoin="round"/>
<path d="M52 18L62 8L72.0001 18L62 28.0001L52 18Z" fill="url(#paint1_linear_3480_30040)"/>
<path d="M16 50.0001L16 32" stroke="#101828" stroke-width="4" stroke-linecap="round" stroke-linejoin="round"/>
<rect x="6" y="8" width="20.0001" height="20.0001" rx="10" fill="url(#paint2_linear_3480_30040)"/>
<rect x="52.0001" y="54" width="20.0001" height="20.0001" rx="10" fill="url(#paint3_linear_3480_30040)"/>
<circle cx="62.0002" cy="64" r="14" stroke="#0066FF" stroke-width="4" stroke-linecap="round" stroke-linejoin="round"/>
<circle cx="16" cy="18" r="14" stroke="#0066FF" stroke-width="4" stroke-linecap="round" stroke-linejoin="round"/>
<defs>
<linearGradient id="paint0_linear_3480_30040" x1="16" y1="54" x2="16" y2="74.0001" gradientUnits="userSpaceOnUse">
<stop stop-color="#D6E3FA" stop-opacity="0.8"/>
<stop offset="1" stop-color="#D6E3FA" stop-opacity="0"/>
</linearGradient>
<linearGradient id="paint1_linear_3480_30040" x1="62" y1="8" x2="62" y2="28.0001" gradientUnits="userSpaceOnUse">
<stop stop-color="#D6E3FA" stop-opacity="0.8"/>
<stop offset="1" stop-color="#D6E3FA" stop-opacity="0"/>
</linearGradient>
<linearGradient id="paint2_linear_3480_30040" x1="16" y1="8" x2="16" y2="28.0001" gradientUnits="userSpaceOnUse">
<stop stop-color="#D6E3FA" stop-opacity="0.8"/>
<stop offset="1" stop-color="#D6E3FA" stop-opacity="0"/>
</linearGradient>
<linearGradient id="paint3_linear_3480_30040" x1="62.0002" y1="54" x2="62.0002" y2="74.0001" gradientUnits="userSpaceOnUse">
<stop stop-color="#D6E3FA" stop-opacity="0.8"/>
<stop offset="1" stop-color="#D6E3FA" stop-opacity="0"/>
</linearGradient>
</defs>
</svg>
