<svg width="200" height="200" viewBox="0 0 200 200" fill="none" xmlns="http://www.w3.org/2000/svg">
<mask id="mask0_4092_8379" style="mask-type:alpha" maskUnits="userSpaceOnUse" x="24" y="0" width="176" height="200">
<path d="M28 128V26C28 13.8497 37.8497 4 50 4H72" stroke="white" stroke-width="8"/>
<path d="M48 80H112V88H48V80Z" fill="url(#paint0_linear_4092_8379)"/>
<path d="M48 56H152V64H48V56Z" fill="url(#paint1_linear_4092_8379)"/>
<path d="M48 32H152V40H48V32Z" fill="url(#paint2_linear_4092_8379)"/>
<path d="M28 128V178C28 187.941 36.0589 196 46 196H96" stroke="white" stroke-width="8"/>
<path d="M172 96V88V26C172 13.8497 162.15 4 150 4H135H72" stroke="url(#paint3_linear_4092_8379)" stroke-width="8"/>
<path d="M88 128H64C59.5817 128 56 131.582 56 136C56 140.418 59.5817 144 64 144H80C84.4183 144 88 147.582 88 152C88 156.418 84.4183 160 80 160H56" stroke="white" stroke-width="8"/>
<path d="M72 128V112" stroke="url(#paint4_linear_4092_8379)" stroke-width="8"/>
<path d="M72 160V176" stroke="url(#paint5_linear_4092_8379)" stroke-width="8"/>
<circle cx="156" cy="156" r="40" stroke="white" stroke-width="8"/>
<path d="M136 158L148 170L176 142" stroke="white" stroke-width="8"/>
</mask>
<g mask="url(#mask0_4092_8379)">
<rect width="200" height="200" fill="white"/>
</g>
<defs>
<linearGradient id="paint0_linear_4092_8379" x1="48" y1="122.219" x2="112" y2="122.219" gradientUnits="userSpaceOnUse">
<stop stop-color="white" stop-opacity="0"/>
<stop offset="0.5" stop-color="white"/>
</linearGradient>
<linearGradient id="paint1_linear_4092_8379" x1="48" y1="98.2195" x2="152" y2="98.2195" gradientUnits="userSpaceOnUse">
<stop stop-color="white" stop-opacity="0"/>
<stop offset="0.5" stop-color="white"/>
</linearGradient>
<linearGradient id="paint2_linear_4092_8379" x1="48" y1="74.2195" x2="152" y2="74.2195" gradientUnits="userSpaceOnUse">
<stop stop-color="white" stop-opacity="0"/>
<stop offset="0.5" stop-color="white"/>
</linearGradient>
<linearGradient id="paint3_linear_4092_8379" x1="153.526" y1="122.334" x2="153.526" y2="30.3339" gradientUnits="userSpaceOnUse">
<stop offset="0.35" stop-color="white" stop-opacity="0"/>
<stop offset="1" stop-color="white"/>
</linearGradient>
<linearGradient id="paint4_linear_4092_8379" x1="72.5" y1="112" x2="72.5" y2="128" gradientUnits="userSpaceOnUse">
<stop stop-color="white"/>
<stop offset="1" stop-color="white" stop-opacity="0"/>
</linearGradient>
<linearGradient id="paint5_linear_4092_8379" x1="72.5" y1="160" x2="72.5" y2="176" gradientUnits="userSpaceOnUse">
<stop stop-color="white" stop-opacity="0"/>
<stop offset="1" stop-color="white"/>
</linearGradient>
</defs>
</svg>
