<svg width="80" height="80" viewBox="0 0 80 80" fill="none" xmlns="http://www.w3.org/2000/svg">
<path d="M12 58L12 22" stroke="#0066FF" stroke-width="4" stroke-linecap="round" stroke-linejoin="round"/>
<path d="M68 58V46C68 42.6863 65.3137 40 62 40H54" stroke="#0066FF" stroke-width="4" stroke-linecap="round" stroke-linejoin="round"/>
<path d="M30 68H36M44 68H50" stroke="#101828" stroke-width="4" stroke-linecap="round" stroke-linejoin="round"/>
<path d="M44 12H50" stroke="#101828" stroke-width="4" stroke-linecap="round" stroke-linejoin="round"/>
<path d="M30 12H36" stroke="#101828" stroke-width="4" stroke-linecap="round" stroke-linejoin="round"/>
<path d="M58 68C58 62.4772 62.4772 58 68 58C73.5228 58 78 62.4772 78 68C78 73.5228 73.5228 78 68 78C62.4772 78 58 73.5228 58 68Z" stroke="#101828" stroke-width="4" stroke-linecap="round" stroke-linejoin="round"/>
<path d="M2 12C2 6.47715 6.47715 2 12 2C17.5228 2 22 6.47715 22 12C22 17.5228 17.5228 22 12 22C6.47715 22 2 17.5228 2 12Z" stroke="#101828" stroke-width="4" stroke-linecap="round" stroke-linejoin="round"/>
<path d="M58 12C58 6.47715 62.4772 2 68 2C73.5228 2 78 6.47715 78 12C78 17.5228 73.5228 22 68 22C62.4772 22 58 17.5228 58 12Z" stroke="#101828" stroke-width="4" stroke-linecap="round" stroke-linejoin="round"/>
<rect x="30" y="30" width="20" height="20" rx="10" fill="url(#paint0_linear_3480_30203)"/>
<path d="M26 40C26 32.268 32.268 26 40 26C47.732 26 54 32.268 54 40C54 47.732 47.732 54 40 54C32.268 54 26 47.732 26 40Z" stroke="#0066FF" stroke-width="4" stroke-linejoin="round"/>
<rect x="6" y="6" width="12" height="12" rx="6" fill="url(#paint1_linear_3480_30203)"/>
<rect x="62" y="6" width="12" height="12" rx="6" fill="url(#paint2_linear_3480_30203)"/>
<rect x="62" y="62" width="12" height="12" rx="6" fill="url(#paint3_linear_3480_30203)"/>
<path d="M12 58L2 68L12 78L22 68L12 58Z" stroke="#101828" stroke-width="4" stroke-linecap="round" stroke-linejoin="round"/>
<path d="M6 68L12 62L18 68L12 74L6 68Z" fill="url(#paint4_linear_3480_30203)"/>
<defs>
<linearGradient id="paint0_linear_3480_30203" x1="40" y1="30" x2="40" y2="50" gradientUnits="userSpaceOnUse">
<stop stop-color="#D6E3FA" stop-opacity="0.8"/>
<stop offset="1" stop-color="#D6E3FA" stop-opacity="0"/>
</linearGradient>
<linearGradient id="paint1_linear_3480_30203" x1="12" y1="6" x2="12" y2="18" gradientUnits="userSpaceOnUse">
<stop stop-color="#D6E3FA" stop-opacity="0.8"/>
<stop offset="1" stop-color="#D6E3FA" stop-opacity="0"/>
</linearGradient>
<linearGradient id="paint2_linear_3480_30203" x1="68" y1="6" x2="68" y2="18" gradientUnits="userSpaceOnUse">
<stop stop-color="#D6E3FA" stop-opacity="0.8"/>
<stop offset="1" stop-color="#D6E3FA" stop-opacity="0"/>
</linearGradient>
<linearGradient id="paint3_linear_3480_30203" x1="68" y1="62" x2="68" y2="74" gradientUnits="userSpaceOnUse">
<stop stop-color="#D6E3FA" stop-opacity="0.8"/>
<stop offset="1" stop-color="#D6E3FA" stop-opacity="0"/>
</linearGradient>
<linearGradient id="paint4_linear_3480_30203" x1="12" y1="62" x2="12" y2="74" gradientUnits="userSpaceOnUse">
<stop stop-color="#D6E3FA" stop-opacity="0.8"/>
<stop offset="1" stop-color="#D6E3FA" stop-opacity="0"/>
</linearGradient>
</defs>
</svg>
