<svg width="64" height="64" viewBox="0 0 64 64" fill="none" xmlns="http://www.w3.org/2000/svg">
<g clip-path="url(#clip0_3955_45163)">
<path d="M39 30C45.0751 30 50 34.9249 50 41C50 44.4158 48.4429 47.4678 46 49.4854V62C46 62.8088 45.5128 63.538 44.7656 63.8477C44.0183 64.1572 43.1579 63.9861 42.5859 63.4141L39 59.8281L35.4141 63.4141C34.8421 63.9861 33.9817 64.1572 33.2344 63.8477C32.4872 63.538 32 62.8088 32 62V49.4854C29.5571 47.4678 28 44.4158 28 41C28 34.9249 32.9249 30 39 30ZM42 51.582C41.046 51.8519 40.0404 52 39 52C37.9596 52 36.954 51.8519 36 51.582V57.1719L37.5859 55.5859L37.7373 55.4482C38.5229 54.8074 39.6818 54.8537 40.4141 55.5859L42 57.1719V51.582ZM56 0C60.4183 0 64 3.58172 64 8V44C64 48.4183 60.4183 52 56 52H54V48H56C58.2091 48 60 46.2091 60 44V8C60 5.79086 58.2091 4 56 4H8C5.79086 4 4 5.79086 4 8V44C4 46.2091 5.79086 48 8 48H24V52H8C3.58172 52 0 48.4183 0 44V8C0 3.58172 3.58172 0 8 0H56ZM39 34C35.134 34 32 37.134 32 41C32 44.866 35.134 48 39 48C42.866 48 46 44.866 46 41C46 37.134 42.866 34 39 34ZM26 28H12V24H26V28ZM52 16H12V12H52V16Z" fill="black"/>
</g>
<defs>
<clipPath id="clip0_3955_45163">
<rect width="64" height="64" fill="white"/>
</clipPath>
</defs>
</svg>
