<svg width="200" height="200" viewBox="0 0 200 200" fill="none" xmlns="http://www.w3.org/2000/svg">
<mask id="mask0_4092_8374" style="mask-type:alpha" maskUnits="userSpaceOnUse" x="0" y="0" width="200" height="200">
<mask id="mask1_4092_8374" style="mask-type:alpha" maskUnits="userSpaceOnUse" x="-4" y="96" width="108" height="108">
<path d="M52 204L104 152L48 96L-4 148V204H52Z" fill="url(#paint0_linear_4092_8374)"/>
</mask>
<g mask="url(#mask1_4092_8374)">
<path d="M52 100L4 148V196H52L100 148M100 52L148 4L196 52L148 100" stroke="white" stroke-width="8" stroke-linejoin="round"/>
</g>
<mask id="mask2_4092_8374" style="mask-type:alpha" maskUnits="userSpaceOnUse" x="96" y="-4" width="108" height="108">
<path d="M152 104L204 52L148 -4L96 48L152 104Z" fill="url(#paint1_linear_4092_8374)"/>
</mask>
<g mask="url(#mask2_4092_8374)">
<path d="M100 52L148 4L196 52L148 100" stroke="white" stroke-width="8" stroke-linejoin="round"/>
</g>
<path d="M52 4L4 52L148 196L196 148L160 112L124 76L88 40L52 4Z" stroke="white" stroke-width="8" stroke-linejoin="round"/>
<path d="M88 40L64 64" stroke="white" stroke-width="8"/>
<path d="M124 76L100 100" stroke="white" stroke-width="8"/>
<path d="M160 112L136 136" stroke="white" stroke-width="8"/>
<path d="M52 4L4 52L148 196L196 148L160 112L124 76L88 40L52 4Z" stroke="white" stroke-width="8" stroke-linejoin="round"/>
<path d="M160 112L136 136" stroke="white" stroke-width="8"/>
</mask>
<g mask="url(#mask0_4092_8374)">
<rect width="200" height="200" fill="white"/>
</g>
<defs>
<linearGradient id="paint0_linear_4092_8374" x1="51.9988" y1="100" x2="-0.00117558" y2="151.999" gradientUnits="userSpaceOnUse">
<stop stop-color="white" stop-opacity="0"/>
<stop offset="1" stop-color="white"/>
</linearGradient>
<linearGradient id="paint1_linear_4092_8374" x1="152" y1="3.5931e-05" x2="99.9997" y2="52" gradientUnits="userSpaceOnUse">
<stop stop-color="#0F62FE"/>
<stop offset="1" stop-color="#0F62FE" stop-opacity="0"/>
</linearGradient>
</defs>
</svg>
