<svg width="192" height="256" viewBox="0 0 192 256" fill="none" xmlns="http://www.w3.org/2000/svg">
<g opacity="0.3">
<mask id="mask0_3656_6394" style="mask-type:alpha" maskUnits="userSpaceOnUse" x="-256" y="-256" width="512" height="512">
<circle r="256" fill="url(#paint0_radial_3656_6394)"/>
</mask>
<g mask="url(#mask0_3656_6394)">
<path d="M192 32L0 32" stroke="white" stroke-linejoin="round"/>
<path d="M192 64L0 64" stroke="white" stroke-linejoin="round" stroke-dasharray="8 8"/>
<path d="M192 96L0 96" stroke="white" stroke-linejoin="round" stroke-dasharray="8 8"/>
<path d="M192 128L0 128" stroke="white" stroke-linejoin="round" stroke-dasharray="8 8"/>
<path d="M192 160L0 160" stroke="white" stroke-linejoin="round" stroke-dasharray="8 8"/>
<path d="M192 192L0 192" stroke="white" stroke-linejoin="round"/>
<path d="M192 224L0 224" stroke="white" stroke-linejoin="round" stroke-dasharray="8 8"/>
<path d="M32 0V256" stroke="white" stroke-linejoin="round"/>
<path d="M64 0V256" stroke="white" stroke-linejoin="round" stroke-dasharray="8 8"/>
<path d="M96 0V256" stroke="white" stroke-linejoin="round" stroke-dasharray="8 8"/>
<path d="M128 0V256" stroke="white" stroke-linejoin="round"/>
<path d="M160 0V256" stroke="white" stroke-linejoin="round" stroke-dasharray="8 8"/>
</g>
<path d="M128 86.627L102.627 112L128 137.373V166.627L102.627 192H57.373L32 166.627V136H64V153.373L70.627 160H89.373L96 153.373V150.627L57.373 112L96 73.373V64H64V88H32V32H128V86.627Z" fill="url(#paint1_linear_3656_6394)"/>
<path d="M128 86.627L128.354 86.9805L128.5 86.8341V86.627H128ZM102.627 112L102.273 111.646L101.92 112L102.273 112.354L102.627 112ZM128 137.373H128.5V137.166L128.354 137.019L128 137.373ZM128 166.627L128.354 166.98L128.5 166.834V166.627H128ZM102.627 192V192.5H102.834L102.981 192.354L102.627 192ZM57.373 192L57.0195 192.354L57.1659 192.5H57.373V192ZM32 166.627H31.5V166.834L31.6464 166.98L32 166.627ZM32 136V135.5H31.5V136H32ZM64 136H64.5V135.5H64V136ZM64 153.373H63.5V153.58L63.6464 153.727L64 153.373ZM70.627 160L70.2734 160.354L70.4198 160.5H70.627V160ZM89.373 160V160.5H89.5802L89.7266 160.354L89.373 160ZM96 153.373L96.3536 153.727L96.5 153.58V153.373H96ZM96 150.627H96.5V150.42L96.3536 150.273L96 150.627ZM57.373 112L57.0195 111.646L56.6659 112L57.0195 112.354L57.373 112ZM96 73.373L96.3536 73.7266L96.5 73.5802V73.373H96ZM96 64H96.5V63.5H96V64ZM64 64V63.5H63.5V64H64ZM64 88V88.5H64.5V88H64ZM32 88H31.5V88.5H32V88ZM32 32V31.5H31.5V32H32ZM128 32H128.5V31.5H128V32ZM128 86.627L127.646 86.2734L102.273 111.646L102.627 112L102.981 112.354L128.354 86.9805L128 86.627ZM102.627 112L102.273 112.354L127.646 137.727L128 137.373L128.354 137.019L102.981 111.646L102.627 112ZM128 137.373H127.5V166.627H128H128.5V137.373H128ZM128 166.627L127.646 166.273L102.273 191.646L102.627 192L102.981 192.354L128.354 166.98L128 166.627ZM102.627 192V191.5H57.373V192V192.5H102.627V192ZM57.373 192L57.7266 191.646L32.3536 166.273L32 166.627L31.6464 166.98L57.0195 192.354L57.373 192ZM32 166.627H32.5V136H32H31.5V166.627H32ZM32 136V136.5H64V136V135.5H32V136ZM64 136H63.5V153.373H64H64.5V136H64ZM64 153.373L63.6464 153.727L70.2734 160.354L70.627 160L70.9805 159.646L64.3536 153.019L64 153.373ZM70.627 160V160.5H89.373V160V159.5H70.627V160ZM89.373 160L89.7266 160.354L96.3536 153.727L96 153.373L95.6464 153.019L89.0195 159.646L89.373 160ZM96 153.373H96.5V150.627H96H95.5V153.373H96ZM96 150.627L96.3536 150.273L57.7266 111.646L57.373 112L57.0195 112.354L95.6464 150.981L96 150.627ZM57.373 112L57.7266 112.354L96.3536 73.7266L96 73.373L95.6464 73.0195L57.0195 111.646L57.373 112ZM96 73.373H96.5V64H96H95.5V73.373H96ZM96 64V63.5H64V64V64.5H96V64ZM64 64H63.5V88H64H64.5V64H64ZM64 88V87.5H32V88V88.5H64V88ZM32 88H32.5V32H32H31.5V88H32ZM32 32V32.5H128V32V31.5H32V32ZM128 32H127.5V86.627H128H128.5V32H128Z" fill="white"/>
</g>
<defs>
<radialGradient id="paint0_radial_3656_6394" cx="0" cy="0" r="1" gradientUnits="userSpaceOnUse" gradientTransform="rotate(90) scale(256)">
<stop stop-color="white" stop-opacity="0"/>
<stop offset="1" stop-color="white" stop-opacity="0.6"/>
</radialGradient>
<linearGradient id="paint1_linear_3656_6394" x1="80" y1="32" x2="80" y2="192" gradientUnits="userSpaceOnUse">
<stop stop-color="white" stop-opacity="0.1"/>
<stop offset="1" stop-color="white" stop-opacity="0"/>
</linearGradient>
</defs>
</svg>
