<svg width="20" height="20" viewBox="0 0 20 20" fill="none" xmlns="http://www.w3.org/2000/svg">
<g clip-path="url(#clip0_4053_52984)">
<path d="M19.7998 3.2002C19.9103 3.2002 20 3.28993 20 3.40039V16.7998C20 18.5671 18.5671 20 16.7998 20H3.40039C3.28993 20 3.2002 19.9103 3.2002 19.7998V18.418C3.2002 18.3274 3.2612 18.248 3.34863 18.2246L10.9795 16.1797C11.1151 16.1433 11.2579 16.1434 11.3936 16.1797L16.5928 17.5732C17.0195 17.6876 17.4579 17.4336 17.5723 17.0068C17.6086 16.8712 17.6086 16.7284 17.5723 16.5928L16.1797 11.3936C16.1434 11.2579 16.1434 11.1151 16.1797 10.9795L18.2246 3.34863C18.248 3.2612 18.3274 3.2002 18.418 3.2002H19.7998ZM16.5996 0C16.7101 0 16.7998 0.0897384 16.7998 0.200195V1.58301C16.7996 1.67333 16.7386 1.752 16.6514 1.77539L9.02051 3.82031C8.88487 3.85666 8.74208 3.85665 8.60645 3.82031L3.40723 2.42773C2.98045 2.31338 2.54209 2.56639 2.42773 2.99316C2.39139 3.12881 2.39139 3.27158 2.42773 3.40723L3.82031 8.60645C3.85665 8.74208 3.85665 8.88487 3.82031 9.02051L1.77539 16.6514C1.75196 16.7388 1.67255 16.7998 1.58203 16.7998H0.200195C0.0897384 16.7998 0 16.7101 0 16.5996V3.2002C0 1.43288 1.43288 0 3.2002 0H16.5996Z" fill="white"/>
</g>
<defs>
<clipPath id="clip0_4053_52984">
<rect width="20" height="20" fill="white"/>
</clipPath>
</defs>
</svg>
